<svg width="5069" height="2886" xmlns="http://www.w3.org/2000/svg" xmlns:xlink="http://www.w3.org/1999/xlink" xml:space="preserve" overflow="hidden"><defs><clipPath id="clip0"><rect x="3033" y="1738" width="5069" height="2886"/></clipPath><clipPath id="clip1"><rect x="3605" y="1845" width="4358" height="2729"/></clipPath></defs><g clip-path="url(#clip0)" transform="translate(-3033 -1738)"><rect x="3034" y="1739" width="5066" height="2883" fill="#FFFFFF"/><g><path d="M4618.65 1845.5 4618.65 4571.5M5630.68 1845.5 5630.68 4571.5M6643.72 1845.5 6643.72 4571.5M7656.5 1845.5 7656.5 4571.5" stroke="#D9D9D9" stroke-width="3.4375" stroke-linejoin="round" stroke-miterlimit="10" fill="none"/></g><g clip-path="url(#clip1)"><path d="M3686.12 1862.06 3605 1862.06 3605 1884.06 3686.12 1884.06ZM3767.12 1916.06 3686.12 1916.06 3686.12 1938.06 3767.12 1938.06ZM3869.13 1971.06 3767.12 1971.06 3767.12 1993.07 3869.13 1993.07ZM3970.13 2025.07 3869.13 2025.07 3869.13 2047.07 3970.13 2047.07ZM4051.13 2080.07 3970.13 2080.07 3970.13 2102.07 4051.13 2102.07ZM4152.14 2134.07 4051.13 2134.07 4051.13 2156.07 4152.14 2156.07ZM4253.14 2189.07 4152.14 2189.07 4152.14 2211.07 4253.14 2211.07ZM4314.14 2243.07 4253.14 2243.07 4253.14 2265.07 4314.14 2265.07ZM4375.14 2298.08 4314.14 2298.08 4314.14 2320.08 4375.14 2320.08ZM4456.15 2352.08 4375.14 2352.08 4375.14 2374.08 4456.15 2374.08ZM4557.15 2407.08 4456.15 2407.08 4456.15 2429.08 4557.15 2429.08ZM4638.15 2461.08 4557.15 2461.08 4557.15 2483.08 4638.15 2483.08ZM4760.16 2516.08 4638.15 2516.08 4638.15 2538.08 4760.16 2538.08ZM4861.16 2571.08 4760.16 2571.08 4760.16 2592.08 4861.16 2592.08ZM4942.16 2625.09 4861.16 2625.09 4861.16 2647.09 4942.16 2647.09ZM5084.17 2680.09 4942.16 2680.09 4942.16 2701.09 5084.17 2701.09ZM5185.17 2734.09 5084.17 2734.09 5084.17 2756.09 5185.17 2756.09ZM5286.17 2789.09 5185.17 2789.09 5185.17 2810.09 5286.17 2810.09ZM5449.18 2843.09 5286.17 2843.09 5286.17 2865.09 5449.18 2865.09ZM5590.18 2898.1 5449.18 2898.1 5449.18 2919.1 5590.18 2919.1ZM5671.19 2952.1 5590.18 2952.1 5590.18 2974.1 5671.19 2974.1ZM5712.19 3007.1 5671.19 3007.1 5671.19 3028.1 5712.19 3028.1ZM5833.19 3061.1 5712.19 3061.1 5712.19 3083.1 5833.19 3083.1ZM6117.2 3116.1 5833.19 3116.1 5833.19 3138.1 6117.2 3138.1ZM6380.21 3170.1 6117.2 3170.1 6117.2 3192.1 6380.21 3192.1ZM6461.21 3225.11 6380.21 3225.11 6380.21 3247.11 6461.21 3247.11ZM6563.22 3279.11 6461.21 3279.11 6461.21 3301.11 6563.22 3301.11ZM6644.22 3334.11 6563.22 3334.11 6563.22 3356.11 6644.22 3356.11ZM6684.22 3388.11 6644.22 3388.11 6644.22 3410.11 6684.22 3410.11ZM6745.22 3443.11 6684.22 3443.11 6684.22 3465.11 6745.22 3465.11ZM6826.22 3497.11 6745.22 3497.11 6745.22 3519.12 6826.22 3519.12ZM6988.23 3552.12 6826.22 3552.12 6826.22 3574.12 6988.23 3574.12ZM7028.23 3606.12 6988.23 3606.12 6988.23 3628.12 7028.23 3628.12ZM7069.23 3661.12 7028.23 3661.12 7028.23 3683.12 7069.23 3683.12ZM7089.23 3715.12 7069.23 3715.12 7069.23 3737.12 7089.23 3737.12ZM7170.24 3770.12 7089.23 3770.12 7089.23 3792.12 7170.24 3792.12ZM7231.24 3824.13 7170.24 3824.13 7170.24 3846.13 7231.24 3846.13ZM7292.24 3879.13 7231.24 3879.13 7231.24 3901.13 7292.24 3901.13ZM7332.24 3934.13 7292.24 3934.13 7292.24 3955.13 7332.24 3955.13ZM7373.24 3988.13 7332.24 3988.13 7332.24 4010.13 7373.24 4010.13ZM7434.24 4043.13 7373.24 4043.13 7373.24 4064.13 7434.24 4064.13ZM7494.25 4097.13 7434.24 4097.13 7434.24 4119.14 7494.25 4119.14ZM7535.25 4152.14 7494.25 4152.14 7494.25 4173.14 7535.25 4173.14ZM7596.25 4206.14 7535.25 4206.14 7535.25 4228.14 7596.25 4228.14ZM7656.25 4261.14 7596.25 4261.14 7596.25 4282.14 7656.25 4282.14ZM7717.25 4315.14 7656.25 4315.14 7656.25 4337.14 7717.25 4337.14ZM7758.25 4370.14 7717.25 4370.14 7717.25 4391.14 7758.25 4391.14ZM7818.26 4424.15 7758.25 4424.15 7758.25 4446.15 7818.26 4446.15ZM7920.26 4479.15 7818.26 4479.15 7818.26 4501.15 7920.26 4501.15ZM7981 4533.15 7920.26 4533.15 7920.26 4555.15 7981 4555.15Z" fill="#ED7D31"/></g><g><path d="M3605.5 1845.5 3605.5 4571.5" stroke="#D9D9D9" stroke-width="3.4375" stroke-linejoin="round" stroke-miterlimit="10" fill="none" fill-rule="evenodd"/></g><g><text fill="#595959" font-family="Calibri,Calibri_MSFontService,sans-serif" font-weight="400" font-size="41" transform="matrix(1 0 0 1 3526.7 1803)">5/1/2025</text></g><g><text fill="#595959" font-family="Calibri,Calibri_MSFontService,sans-serif" font-weight="400" font-size="41" transform="matrix(1 0 0 1 4529.08 1803)">6/20/2025</text></g><g><text fill="#595959" font-family="Calibri,Calibri_MSFontService,sans-serif" font-weight="400" font-size="41" transform="matrix(1 0 0 1 5552.37 1803)">8/9/2025</text></g><g><text fill="#595959" font-family="Calibri,Calibri_MSFontService,sans-serif" font-weight="400" font-size="41" transform="matrix(1 0 0 1 6554.75 1803)">9/28/2025</text></g><g><text fill="#595959" font-family="Calibri,Calibri_MSFontService,sans-serif" font-weight="400" font-size="41" transform="matrix(1 0 0 1 7557.13 1803)">11/17/2025</text></g><g><text font-family="Calibri,Calibri_MSFontService,sans-serif" font-weight="400" font-size="41" transform="matrix(1 0 0 1 3225.99 1884)">Define Project Goals</text></g><g><text font-family="Calibri,Calibri_MSFontService,sans-serif" font-weight="400" font-size="41" transform="matrix(1 0 0 1 3145.81 1939)">Requirements Evaluation</text></g><g><text font-family="Calibri,Calibri_MSFontService,sans-serif" font-weight="400" font-size="41" transform="matrix(1 0 0 1 3227.89 1993)">Initial Requirements</text></g><g><text font-family="Calibri,Calibri_MSFontService,sans-serif" font-weight="400" font-size="41" transform="matrix(1 0 0 1 3181.33 2048)">Detailed Requirements</text></g><g><text font-family="Calibri,Calibri_MSFontService,sans-serif" font-weight="400" font-size="41" transform="matrix(1 0 0 1 3211.46 2102)">Identify Stakeholders</text></g><g><text font-family="Calibri,Calibri_MSFontService,sans-serif" font-weight="400" font-size="41" transform="matrix(1 0 0 1 3072.98 2157)">Identify Tools &amp; Technologies</text></g><g><text font-family="Calibri,Calibri_MSFontService,sans-serif" font-weight="400" font-size="41" transform="matrix(1 0 0 1 3319.06 2211)">Project Budget</text></g><g><text font-family="Calibri,Calibri_MSFontService,sans-serif" font-weight="400" font-size="41" transform="matrix(1 0 0 1 3286.65 2266)">Project Schedule</text></g><g><text font-family="Calibri,Calibri_MSFontService,sans-serif" font-weight="400" font-size="41" transform="matrix(1 0 0 1 3247.9 2320)">Form Project Team</text></g><g><text font-family="Calibri,Calibri_MSFontService,sans-serif" font-weight="400" font-size="41" transform="matrix(1 0 0 1 3300.68 2375)">Communication</text></g><g><text font-family="Calibri,Calibri_MSFontService,sans-serif" font-weight="400" font-size="41" transform="matrix(1 0 0 1 3265.62 2429)">Risk Management</text></g><g><text font-family="Calibri,Calibri_MSFontService,sans-serif" font-weight="400" font-size="41" transform="matrix(1 0 0 1 3399.66 2484)">Feasibility</text></g><g><text font-family="Calibri,Calibri_MSFontService,sans-serif" font-weight="400" font-size="41" transform="matrix(1 0 0 1 3211.74 2539)">Quality Management</text></g><g><text font-family="Calibri,Calibri_MSFontService,sans-serif" font-weight="400" font-size="41" transform="matrix(1 0 0 1 3064.29 2593)">Design System Authentication</text></g><g><text font-family="Calibri,Calibri_MSFontService,sans-serif" font-weight="400" font-size="41" transform="matrix(1 0 0 1 3252.05 2648)">Develop Prototype</text></g><g><text font-family="Calibri,Calibri_MSFontService,sans-serif" font-weight="400" font-size="41" transform="matrix(1 0 0 1 3079.62 2702)">Review &amp; Approve Prototype</text></g><g><text font-family="Calibri,Calibri_MSFontService,sans-serif" font-weight="400" font-size="41" transform="matrix(1 0 0 1 3105.68 2757)">Design System Architecture</text></g><g><text font-family="Calibri,Calibri_MSFontService,sans-serif" font-weight="400" font-size="41" transform="matrix(1 0 0 1 3147.71 2811)">Design Database Schema</text></g><g><text font-family="Calibri,Calibri_MSFontService,sans-serif" font-weight="400" font-size="41" transform="matrix(1 0 0 1 3344.47 2866)">UI/UX Design</text></g><g><text font-family="Calibri,Calibri_MSFontService,sans-serif" font-weight="400" font-size="41" transform="matrix(1 0 0 1 3296.62 2920)">OOAD Diagrams</text></g><g><text font-family="Calibri,Calibri_MSFontService,sans-serif" font-weight="400" font-size="41" transform="matrix(1 0 0 1 3407.75 2975)">Feedback</text></g><g><text font-family="Calibri,Calibri_MSFontService,sans-serif" font-weight="400" font-size="41" transform="matrix(1 0 0 1 3117.21 3029)">Design Document Creation</text></g><g><text font-family="Calibri,Calibri_MSFontService,sans-serif" font-weight="400" font-size="41" transform="matrix(1 0 0 1 3284.11 3084)">Program Feature</text></g><g><text font-family="Calibri,Calibri_MSFontService,sans-serif" font-weight="400" font-size="41" transform="matrix(1 0 0 1 3188.52 3138)">Backend Development</text></g><g><text font-family="Calibri,Calibri_MSFontService,sans-serif" font-weight="400" font-size="41" transform="matrix(1 0 0 1 3176.31 3193)">Frontend Development</text></g><g><text font-family="Calibri,Calibri_MSFontService,sans-serif" font-weight="400" font-size="41" transform="matrix(1 0 0 1 3209.15 3247)">Database Connection</text></g><g><text font-family="Calibri,Calibri_MSFontService,sans-serif" font-weight="400" font-size="41" transform="matrix(1 0 0 1 3293.12 3302)">Security Feature</text></g><g><text font-family="Calibri,Calibri_MSFontService,sans-serif" font-weight="400" font-size="41" transform="matrix(1 0 0 1 3365.17 3356)">Unit Testing</text></g><g><text font-family="Calibri,Calibri_MSFontService,sans-serif" font-weight="400" font-size="41" transform="matrix(1 0 0 1 3305.54 3411)">Version Control</text></g><g><text font-family="Calibri,Calibri_MSFontService,sans-serif" font-weight="400" font-size="41" transform="matrix(1 0 0 1 3202.89 3465)">Requirement Analysis</text></g><g><text font-family="Calibri,Calibri_MSFontService,sans-serif" font-weight="400" font-size="41" transform="matrix(1 0 0 1 3172.46 3520)">Test Case Development</text></g><g><text font-family="Calibri,Calibri_MSFontService,sans-serif" font-weight="400" font-size="41" transform="matrix(1 0 0 1 3322.77 3574)">Test Execution</text></g><g><text font-family="Calibri,Calibri_MSFontService,sans-serif" font-weight="400" font-size="41" transform="matrix(1 0 0 1 3372.59 3629)">Test Report</text></g><g><text font-family="Calibri,Calibri_MSFontService,sans-serif" font-weight="400" font-size="41" transform="matrix(1 0 0 1 3279.07 3683)">Deployment Plan</text></g><g><text font-family="Calibri,Calibri_MSFontService,sans-serif" font-weight="400" font-size="41" transform="matrix(1 0 0 1 3272.56 3738)">System Handover</text></g><g><text font-family="Calibri,Calibri_MSFontService,sans-serif" font-weight="400" font-size="41" transform="matrix(1 0 0 1 3407.75 3793)">Feedback</text></g><g><text font-family="Calibri,Calibri_MSFontService,sans-serif" font-weight="400" font-size="41" transform="matrix(1 0 0 1 3305.38 3847)">Documentation</text></g><g><text font-family="Calibri,Calibri_MSFontService,sans-serif" font-weight="400" font-size="41" transform="matrix(1 0 0 1 3155.32 3902)">Issue Patches &amp; Updates</text></g><g><text font-family="Calibri,Calibri_MSFontService,sans-serif" font-weight="400" font-size="41" transform="matrix(1 0 0 1 3164.16 3956)">Prepare Product Launch</text></g><g><text font-family="Calibri,Calibri_MSFontService,sans-serif" font-weight="400" font-size="41" transform="matrix(1 0 0 1 3494.85 4011)">Plan</text></g><g><text font-family="Calibri,Calibri_MSFontService,sans-serif" font-weight="400" font-size="41" transform="matrix(1 0 0 1 3300.04 4065)">Market Analysis</text></g><g><text font-family="Calibri,Calibri_MSFontService,sans-serif" font-weight="400" font-size="41" transform="matrix(1 0 0 1 3079.6 4120)">Create Demo Videos/Promos</text></g><g><text font-family="Calibri,Calibri_MSFontService,sans-serif" font-weight="400" font-size="41" transform="matrix(1 0 0 1 3292.89 4174)">Email Marketing</text></g><g><text font-family="Calibri,Calibri_MSFontService,sans-serif" font-weight="400" font-size="41" transform="matrix(1 0 0 1 3171.82 4229)">Social Media Marketing</text></g><g><text font-family="Calibri,Calibri_MSFontService,sans-serif" font-weight="400" font-size="41" transform="matrix(1 0 0 1 3091.31 4283)">Content Writing for Website</text></g><g><text font-family="Calibri,Calibri_MSFontService,sans-serif" font-weight="400" font-size="41" transform="matrix(1 0 0 1 3263.23 4338)">Feedback Analysis</text></g><g><text font-family="Calibri,Calibri_MSFontService,sans-serif" font-weight="400" font-size="41" transform="matrix(1 0 0 1 3164.87 4392)">Setup Support Channels</text></g><g><text font-family="Calibri,Calibri_MSFontService,sans-serif" font-weight="400" font-size="41" transform="matrix(1 0 0 1 3120.35 4447)">Schedule Periodic Updates</text></g><g><text font-family="Calibri,Calibri_MSFontService,sans-serif" font-weight="400" font-size="41" transform="matrix(1 0 0 1 3345.46 4501)">Maintenance</text></g><g><text font-family="Calibri,Calibri_MSFontService,sans-serif" font-weight="400" font-size="41" transform="matrix(1 0 0 1 3431.12 4556)">Training</text></g><rect x="3034.5" y="1739.5" width="5066" height="2883" stroke="#D9D9D9" stroke-width="3.4375" stroke-linejoin="round" stroke-miterlimit="10" fill="none"/></g></svg>