<svg width="2973" height="1468" xmlns="http://www.w3.org/2000/svg" xmlns:xlink="http://www.w3.org/1999/xlink" xml:space="preserve" overflow="hidden"><defs><clipPath id="clip0"><rect x="2306" y="1804" width="2973" height="1468"/></clipPath></defs><g clip-path="url(#clip0)" transform="translate(-2306 -1804)"><rect x="2307" y="1805" width="2970" height="1465" fill="#FFFFFF"/><g><path d="M2818.59 2165.5 2818.59 3228.5M2937.6 2165.5 2937.6 3228.5M3056.6 2165.5 3056.6 3228.5M3175.6 2165.5 3175.6 3228.5M3294.61 2165.5 3294.61 3228.5M3413.61 2165.5 3413.61 3228.5M3532.62 2165.5 3532.62 3228.5M3651.62 2165.5 3651.62 3228.5M3770.62 2165.5 3770.62 3228.5M3889.63 2165.5 3889.63 3228.5M4009.63 2165.5 4009.63 3228.5M4128.64 2165.5 4128.64 3228.5M4247.64 2165.5 4247.64 3228.5M4366.64 2165.5 4366.64 3228.5M4485.65 2165.5 4485.65 3228.5M4604.65 2165.5 4604.65 3228.5M4723.66 2165.5 4723.66 3228.5M4842.66 2165.5 4842.66 3228.5M4961.66 2165.5 4961.66 3228.5M5081.5 2165.5 5081.5 3228.5" stroke="#D9D9D9" stroke-width="3.4375" stroke-linejoin="round" stroke-miterlimit="10" fill="none"/></g><g><path d="M3116.1 2206.07 2699 2206.07 2699 2259.07 3116.1 2259.07ZM3568.12 2338.08 3116.1 2338.08 3116.1 2392.08 3568.12 2392.08ZM3938.13 2471.08 3568.12 2471.08 3568.12 2524.08 3938.13 2524.08ZM4354.14 2604.09 3938.13 2604.09 3938.13 2657.09 4354.14 2657.09ZM4569.15 2737.09 4354.14 2737.09 4354.14 2790.09 4569.15 2790.09ZM4724.16 2870.09 4569.15 2870.09 4569.15 2923.1 4724.16 2923.1ZM4986.16 3003.1 4724.16 3003.1 4724.16 3056.1 4986.16 3056.1ZM5164.17 3135.1 4986.16 3135.1 4986.16 3188.1 5164.17 3188.1Z" fill="#ED7D31"/></g><g><path d="M2699.5 2165.5 2699.5 3228.5" stroke="#000000" stroke-width="3.4375" stroke-linejoin="round" stroke-miterlimit="10" fill="none" fill-rule="evenodd"/></g><g><text font-family="Calibri,Calibri_MSFontService,sans-serif" font-weight="400" font-size="41" transform="matrix(0.707107 -0.707107 0.707107 0.707107 2708.86 2132)">5/1/2025</text></g><g><text font-family="Calibri,Calibri_MSFontService,sans-serif" font-weight="400" font-size="41" transform="matrix(0.707107 -0.707107 0.707107 0.707107 2827.96 2132)">5/11/2025</text></g><g><text font-family="Calibri,Calibri_MSFontService,sans-serif" font-weight="400" font-size="41" transform="matrix(0.707107 -0.707107 0.707107 0.707107 2947.06 2132)">5/21/2025</text></g><g><text font-family="Calibri,Calibri_MSFontService,sans-serif" font-weight="400" font-size="41" transform="matrix(0.707107 -0.707107 0.707107 0.707107 3066.16 2132)">5/31/2025</text></g><g><text font-family="Calibri,Calibri_MSFontService,sans-serif" font-weight="400" font-size="41" transform="matrix(0.707107 -0.707107 0.707107 0.707107 3185.27 2132)">6/10/2025</text></g><g><text font-family="Calibri,Calibri_MSFontService,sans-serif" font-weight="400" font-size="41" transform="matrix(0.707107 -0.707107 0.707107 0.707107 3304.37 2132)">6/20/2025</text></g><g><text font-family="Calibri,Calibri_MSFontService,sans-serif" font-weight="400" font-size="41" transform="matrix(0.707107 -0.707107 0.707107 0.707107 3423.47 2132)">6/30/2025</text></g><g><text font-family="Calibri,Calibri_MSFontService,sans-serif" font-weight="400" font-size="41" transform="matrix(0.707107 -0.707107 0.707107 0.707107 3542.58 2132)">7/10/2025</text></g><g><text font-family="Calibri,Calibri_MSFontService,sans-serif" font-weight="400" font-size="41" transform="matrix(0.707107 -0.707107 0.707107 0.707107 3661.68 2132)">7/20/2025</text></g><g><text font-family="Calibri,Calibri_MSFontService,sans-serif" font-weight="400" font-size="41" transform="matrix(0.707107 -0.707107 0.707107 0.707107 3780.78 2132)">7/30/2025</text></g><g><text font-family="Calibri,Calibri_MSFontService,sans-serif" font-weight="400" font-size="41" transform="matrix(0.707107 -0.707107 0.707107 0.707107 3899.89 2132)">8/9/2025</text></g><g><text font-family="Calibri,Calibri_MSFontService,sans-serif" font-weight="400" font-size="41" transform="matrix(0.707107 -0.707107 0.707107 0.707107 4018.99 2132)">8/19/2025</text></g><g><text font-family="Calibri,Calibri_MSFontService,sans-serif" font-weight="400" font-size="41" transform="matrix(0.707107 -0.707107 0.707107 0.707107 4138.09 2132)">8/29/2025</text></g><g><text font-family="Calibri,Calibri_MSFontService,sans-serif" font-weight="400" font-size="41" transform="matrix(0.707107 -0.707107 0.707107 0.707107 4257.19 2132)">9/8/2025</text></g><g><text font-family="Calibri,Calibri_MSFontService,sans-serif" font-weight="400" font-size="41" transform="matrix(0.707107 -0.707107 0.707107 0.707107 4376.3 2132)">9/18/2025</text></g><g><text font-family="Calibri,Calibri_MSFontService,sans-serif" font-weight="400" font-size="41" transform="matrix(0.707107 -0.707107 0.707107 0.707107 4495.4 2132)">9/28/2025</text></g><g><text font-family="Calibri,Calibri_MSFontService,sans-serif" font-weight="400" font-size="41" transform="matrix(0.707107 -0.707107 0.707107 0.707107 4614.5 2132)">10/8/2025</text></g><g><text font-family="Calibri,Calibri_MSFontService,sans-serif" font-weight="400" font-size="41" transform="matrix(0.707107 -0.707107 0.707107 0.707107 4733.61 2132)">10/18/2025</text></g><g><text font-family="Calibri,Calibri_MSFontService,sans-serif" font-weight="400" font-size="41" transform="matrix(0.707107 -0.707107 0.707107 0.707107 4852.71 2132)">10/28/2025</text></g><g><text font-family="Calibri,Calibri_MSFontService,sans-serif" font-weight="400" font-size="41" transform="matrix(0.707107 -0.707107 0.707107 0.707107 4971.81 2132)">11/7/2025</text></g><g><text font-family="Calibri,Calibri_MSFontService,sans-serif" font-weight="400" font-size="41" transform="matrix(0.707107 -0.707107 0.707107 0.707107 5090.92 2132)">11/17/2025</text></g><g><text fill="#0D0D0D" font-family="Calibri,Calibri_MSFontService,sans-serif" font-weight="400" font-size="41" transform="matrix(1 0 0 1 2315.34 2244)">1.1: Project Planning</text></g><g><text fill="#0D0D0D" font-family="Calibri,Calibri_MSFontService,sans-serif" font-weight="400" font-size="41" transform="matrix(1 0 0 1 2315.34 2377)">1.2: Project Planning</text></g><g><text fill="#0D0D0D" font-family="Calibri,Calibri_MSFontService,sans-serif" font-weight="400" font-size="41" transform="matrix(1 0 0 1 2475.65 2509)">1.3: Design</text></g><g><text fill="#0D0D0D" font-family="Calibri,Calibri_MSFontService,sans-serif" font-weight="400" font-size="41" transform="matrix(1 0 0 1 2361.29 2642)">1.4: Development</text></g><g><text fill="#0D0D0D" font-family="Calibri,Calibri_MSFontService,sans-serif" font-weight="400" font-size="41" transform="matrix(1 0 0 1 2467.1 2775)">1.5: Testing</text></g><g><text fill="#0D0D0D" font-family="Calibri,Calibri_MSFontService,sans-serif" font-weight="400" font-size="41" transform="matrix(1 0 0 1 2401.53 2908)">1.6: Integration</text></g><g><text fill="#0D0D0D" font-family="Calibri,Calibri_MSFontService,sans-serif" font-weight="400" font-size="41" transform="matrix(1 0 0 1 2415.17 3041)">1.7: Marketing</text></g><g><text fill="#0D0D0D" font-family="Calibri,Calibri_MSFontService,sans-serif" font-weight="400" font-size="41" transform="matrix(1 0 0 1 2454.29 3174)">1.8: Support</text></g><g><text font-family="Calibri,Calibri_MSFontService,sans-serif" font-weight="400" font-size="64" transform="matrix(1 0 0 1 3580.46 1900)">Project Timeline</text></g><rect x="2307.5" y="1805.5" width="2970" height="1465" stroke="#D9D9D9" stroke-width="3.4375" stroke-linejoin="round" stroke-miterlimit="10" fill="none"/></g></svg>